<?xml version="1.0" encoding="UTF-8" standalone="no"?>
<svg xmlns="http://www.w3.org/2000/svg" xml:space="preserve" fill-rule="evenodd" stroke-linecap="round" stroke-linejoin="round" stroke-miterlimit="1.41421" clip-rule="evenodd" viewBox="0 0 83 83">
  <g transform="translate(-115.981 -17.1848) scale(.4656)">
    <path fill="#fff" fill-rule="nonzero" stroke="#000" stroke-width="5.96" d="M287.76 46.679c-5.636 0-10.188 4.52-10.188 10.156v138.06c0 5.636 4.552 10.188 10.188 10.188h100.28c5.636 0 10.156-4.552 10.156-10.188V76.275l-29.6-29.599h-80.844l.008.003Z"/>
    <path fill="#fff" fill-rule="nonzero" stroke="#000" stroke-width="5.66" d="m397.83 75.929-29.59-29.625v19.438c0 5.636 4.52 10.188 10.156 10.188h19.438l-.004-.001Z"/>
    <path fill="none" stroke="#666" stroke-width="5.21" d="M311.755 93.138c-27.729-12.173-17.834-37.986 18.963-34.866" transform="matrix(1.50268 0 0 1 -145.529 3.73795)"/>
    <g transform="matrix(.63797 -.0072 -.0072 -.63797 82.9757 591.956)">
      <path fill-rule="nonzero" d="M506.602 619.055c-.908 0-1.804.336-2.5 1.031l-20.999 21c-1.391 1.391-1.391 3.609 0 5l27.686 27.688c1.391 1.391 3.64 1.391 5.031 0l20.999-21c1.391-1.391 1.391-3.609 0-5l-27.686-27.688c-.695-.696-1.623-1.031-2.531-1.031Zm-31.592 31.594c-.908 0-1.804.335-2.5 1.031l-66.715 66.719c-1.391 1.391-1.391 3.609 0 5l27.686 27.688c1.391 1.391 3.64 1.391 5.031 0l66.684-66.688c1.391-1.391 1.391-3.64 0-5.031L477.51 651.68c-.695-.696-1.592-1.031-2.5-1.031Zm-77.531 77.188c-.747.066-1.366.711-1.5 1.562l-7.343 22.125-7.344 22.062c-.136.619.005 1.276.375 1.75.05.045.102.087.157.125.453.317 1.011.364 1.499.125l22.061-7.312 22.093-7.375c.775-.173 1.339-.963 1.339-1.874 0-.418-.119-.825-.339-1.158l-14.718-14.719-14.718-14.75c-.357-.423-.866-.631-1.375-.562-.062-.004-.125-.004-.187 0v.001Z"/>
      <path fill="#fff" d="m383.263 785.546.758-.065.752-.116.741-.167.727-.215.71-.263-.065.029 21.597-7.159 21.744-7.258-.055.014.543-.166.528-.19.513-.214.494-.235.477-.255.457-.273.438-.29.419-.306.398-.319.379-.332.36-.344.34-.355.322-.364.302-.373.285-.382.267-.389.248-.396.232-.404.214-.411.197-.416.18-.421.164-.429.147-.433.13-.438.113-.444.005-.023.222-.037.63-.138.625-.169.619-.2.611-.231.602-.262.592-.293.579-.323.566-.354.55-.384.532-.413.514-.441.402-.382 66.859-66.863.382-.402.441-.514.413-.533.383-.549.354-.566.324-.58.292-.591.262-.602.231-.611.2-.619.169-.625.138-.63.005-.033.033-.005.63-.138.625-.169.619-.2.611-.231.602-.262.591-.293.58-.323.566-.354.549-.384.533-.413.514-.441.402-.382 21.173-21.174.379-.399.438-.508.411-.529.382-.546.353-.562.324-.577.293-.589.263-.601.233-.611.201-.619.171-.626.139-.63.108-.636.078-.64.046-.641.016-.642-.016-.642-.046-.641-.078-.64-.108-.636-.14-.631-.17-.625-.201-.618-.233-.611-.263-.602-.293-.589-.324-.577-.353-.561-.383-.547-.41-.528-.438-.509-.38-.399-27.864-27.867-.416-.394-.531-.453-.549-.42-.564-.388-.577-.354-.588-.322-.597-.288-.604-.256-.61-.224-.615-.193-.617-.162-.621-.131-.621-.102-.623-.072-.625-.044-.624-.014-.626.014-.628.044-.629.074-.629.104-.627.135-.625.166-.619.198-.614.229-.606.262-.595.293-.583.324-.57.355-.553.385-.534.414-.515.442-.402.383-21.173 21.174-.38.399-.438.509-.41.528-.382.546-.354.562-.324.577-.293.59-.263.601-.233.61-.201.618-.17.626-.14.632-.007.04-.608.131-.624.166-.62.198-.614.229-.605.262-.596.293-.583.324-.57.355-.553.385-.534.415-.515.441-.402.383-66.889 66.893-.38.399-.438.509-.41.528-.382.546-.354.562-.324.577-.293.59-.263.601-.232.61-.202.619-.17.626-.125.564-.193.041-.519.137-.506.159-.494.181-.48.202-.463.22-.448.238-.433.255-.415.27-.399.284-.382.298-.365.309-.349.322-.332.332-.316.342-.299.352-.283.361-.267.368-.251.377-.235.385-.22.391-.203.398-.189.404-.172.411-.157.416-.141.42-.125.427-.109.431-.093.434.079-.45-7.116 21.438-7.342 22.058-.183.62-.143.63-.073.38-.088.644-.052.643-.018.64.017.638.049.635.084.631.117.628.151.624.186.619.222.615.258.609.297.602.336.593.377.584.24.327.475.596.518.558.561.515.301.256.576.433.623.407.642.362.669.322.691.279.712.234.729.187.743.138.752.088.758.038.76-.014Zm129.871-110.733-.17-.012-.17-.02-.169-.029-.167-.036-.166-.045-.164-.053-.162-.061-.159-.07-.156-.077-.154-.086-.149-.094-.146-.101-.142-.11-.138-.119-.133-.126-27.686-27.688-.126-.133-.118-.137-.11-.142-.102-.145-.094-.149-.086-.153-.077-.155-.069-.158-.061-.161-.053-.163-.045-.164-.037-.167-.028-.167-.021-.168-.012-.169-.004-.169.004-.169.012-.169.021-.168.028-.167.037-.166.045-.165.053-.163.061-.16.069-.159.077-.155.086-.153.094-.149.102-.145.11-.142.118-.137.126-.133 20.999-21 .133-.126.137-.118.141-.109.145-.102.149-.092.152-.085.156-.076.158-.068.16-.06.163-.052.164-.044.166-.036.168-.028.169-.019.169-.012.17-.004.17.004.171.012.17.019.17.028.168.036.167.044.166.052.163.06.161.068.158.076.155.085.151.092.147.102.143.109.138.118.133.126 27.686 27.688.126.133.119.137.11.142.101.145.094.149.086.153.077.155.069.159.062.16.053.163.044.165.037.166.029.167.02.168.012.169.004.169-.004.169-.012.169-.02.168-.029.167-.037.167-.044.164-.053.163-.062.161-.069.158-.077.155-.086.153-.094.149-.101.145-.11.142-.119.137-.126.133-20.999 21-.133.126-.137.119-.142.11-.146.101-.15.094-.154.086-.156.077-.159.07-.162.061-.164.053-.166.045-.167.036-.169.029-.17.02-.17.012-.17.004-.171-.004Zm-77.308 77.313-.17-.012-.17-.02-.169-.029-.167-.036-.166-.045-.164-.053-.162-.061-.159-.07-.156-.077-.154-.086-.149-.094-.146-.101-.142-.11-.138-.119-.133-.126-27.686-27.688-.126-.133-.118-.137-.11-.142-.102-.145-.094-.149-.086-.153-.077-.155-.069-.158-.061-.161-.053-.163-.045-.164-.037-.167-.028-.167-.021-.168-.012-.169-.004-.169.004-.169.012-.169.021-.168.028-.167.037-.166.045-.165.053-.163.061-.16.069-.159.077-.155.086-.153.094-.149.102-.145.11-.142.118-.137.126-.133 66.715-66.719.133-.126.137-.118.141-.109.145-.102.149-.092.152-.085.156-.076.158-.068.16-.06.163-.052.164-.044.166-.036.168-.028.169-.019.169-.012.17-.004.17.004.17.011.168.02.168.028.166.036.165.043.162.052.161.06.158.069.155.076.152.084.149.093.145.101.141.11.137.118.133.126 27.686 27.688.126.133.119.137.11.142.101.146.094.15.086.153.077.157.069.159.062.162.053.164.044.166.037.167.029.169.02.17.012.17.004.17-.004.171-.012.17-.02.17-.029.169-.037.167-.044.166-.053.164-.062.162-.069.159-.077.156-.086.154-.094.149-.101.147-.11.142-.119.137-.126.133-66.684 66.688-.133.126-.137.119-.142.11-.146.101-.15.094-.153.086-.157.077-.159.07-.162.061-.164.053-.166.045-.167.036-.169.029-.17.02-.17.012-.17.004-.171-.004Zm-38.496-34.125.233.008-.375.013-.031.001h-.002l-.059.002.234-.024Zm-14.77 57.731-.096-.011-.095-.018-.095-.024-.094-.031-.092-.037-.09-.044-.088-.05-.086-.056-.08-.06-.077-.065-.066-.091-.062-.095-.056-.098-.05-.102-.044-.105-.039-.108-.033-.11-.027-.112-.021-.113-.016-.115-.009-.116-.003-.117.004-.117.009-.118.016-.117.022-.116 7.344-22.062 7.343-22.125.014-.079.017-.078.019-.077.022-.075.025-.073.027-.073.03-.07.032-.069.034-.067.037-.065.038-.064.041-.061.043-.059.045-.058.047-.055.049-.053.051-.05.052-.049.054-.045.055-.044.057-.04.059-.038.06-.036.061-.032.063-.03.064-.027.065-.023.066-.021.067-.018.067-.014.069-.012.07-.007v-.001l.094-.003.093.003.096-.01.095-.003.095.003.094.009.093.016.092.021.09.027.09.034.087.039.085.044.083.05.081.056.078.061.075.067.073.072.068.076 14.718 14.75 14.718 14.719.04.064.038.064.035.067.033.068.03.069.028.071.025.071.023.073.02.074.018.075.015.075.012.076.01.077.007.078.004.078.001.078-.001.085-.005.084-.008.084-.012.082-.014.081-.017.08-.02.079-.023.078-.026.076-.028.074-.032.073-.033.072-.037.069-.038.067-.041.066-.044.064-.046.061-.048.059-.05.057-.052.054-.054.052-.056.049-.058.046-.06.044-.061.041-.064.038-.064.034-.067.032-.068.028-.069.025-.071.022-.072.018-22.093 7.375-22.061 7.312-.092.041-.094.035-.094.028-.096.022-.096.015-.097.008-.097.002-.097-.005Zm-3.048-9.197.13-.048-.337.14.207-.092Z"/>
    </g>
  </g>
</svg>